<?xml version="1.0" encoding="utf-8" ?>
<!-- Generator: Assembly 2.2 - http://assemblyapp.co -->
<svg version="1.1"
	xmlns="http://www.w3.org/2000/svg"
	xmlns:xlink="http://www.w3.org/1999/xlink" viewBox="0 0 2048.0 2048.0">
	<g id="document" transform="matrix(1,0,0,1,1024.0,1024.0)">
		<path d="M910.44,-196.463 C961.36,-559.906 708.01,-895.814 344.567,-946.734 C-18.8755,-997.655 -354.783,-744.305 -405.703,-380.862 C-456.624,-17.4191 -203.274,318.489 160.169,369.409 C523.612,420.329 859.519,166.979 910.44,-196.463 Z " fill="#ff8b00" fill-opacity="1.00" />
		<path d="M792.668,-239.737 C818.96,-563.349 577.935,-847.003 254.322,-873.295 C-69.2899,-899.587 -352.944,-658.562 -379.236,-334.95 C-405.528,-11.3375 -164.503,272.316 159.109,298.609 C482.721,324.901 766.375,83.8756 792.668,-239.737 Z " fill="#ff991f" fill-opacity="1.00" />
		<path d="M-393.226,739.25 C-133.3,786.01 114.539,613.746 161.298,353.82 L247.226,-123.831 L-230.425,-209.759 C-490.351,-256.519 -738.19,-84.2547 -784.95,175.672 L-870.877,653.323 L-393.226,739.25 Z " fill="#98e225" fill-opacity="1.00" />
		<path d="M-390.549,471.258 C-308.077,785.528 13.0947,973.173 327.364,890.701 C641.634,808.229 829.28,487.057 746.808,172.787 L-390.549,471.258 Z " fill="#fff01b" fill-opacity="1.00" />
		<path d="M-309.272,401.29 C-246.755,671.588 22.6668,839.792 292.965,777.275 C563.263,714.758 731.467,445.336 668.95,175.038 L-309.272,401.29 Z " fill="#fcff88" fill-opacity="1.00" />
		<path d="M174.386,289.613 L-174.386,574.613 C-94.7664,670.593 15.3353,726.452 128.913,737.637 L174.386,289.613 Z " fill="#ffe545" fill-opacity="1.00" />
		<path d="M259.472,299.845 L418.116,651.955 C515.279,607.312 585.976,528.519 620.445,436.934 L259.472,299.845 Z " fill="#ffe545" fill-opacity="1.00" />
		<path d="M-263.082,-58.3521 L-257.251,-146.873 C-501.568,-162.967 -712.916,22.2574 -729.01,266.575 L-640.49,272.406 C-627.603,76.775 -458.713,-71.2392 -263.082,-58.3521 Z " fill="#b7ff5c" fill-opacity="1.00" />
		<path d="M596.779,-190.72 L687.657,-162.998 C764.17,-413.822 622.7,-679.486 371.877,-755.999 L344.155,-665.121 C544.995,-603.855 658.045,-391.561 596.779,-190.72 Z " fill="#ffd68d" fill-opacity="1.00" />
	</g>
</svg>
