<?xml version="1.0" encoding="utf-8" ?>
<!-- Generator: Assembly 2.2 - http://assemblyapp.co -->
<svg version="1.1"
	xmlns="http://www.w3.org/2000/svg"
	xmlns:xlink="http://www.w3.org/1999/xlink" viewBox="0 0 2048.0 2048.0">
	<g id="document" transform="matrix(1,0,0,1,1024.0,1024.0)">
		<path d="M911.438,-1.08728e-12 C911.438,-503.373 503.373,-911.438 0,-911.438 C-503.373,-911.438 -911.438,-503.373 -911.438,-1.08728e-12 C-911.438,503.373 -503.373,911.438 0,911.438 C503.373,911.438 911.438,503.373 911.438,-1.08728e-12 Z " fill="#ffd314" fill-opacity="1.00" />
		<path d="M-62.9243,65.9935 L-626.933,500.312 C-505.531,655.579 -334.142,748.852 -155.222,771.709 L-62.9243,65.9935 Z " fill="#ffe9ad" fill-opacity="1.00" />
		<path d="M58.5544,-52.404 L152.681,-758.009 C347.847,-730.505 514.318,-628.715 623.573,-485.194 L58.5544,-52.404 Z " fill="#ffe9ad" fill-opacity="1.00" />
		<path d="M79.1139,24.5892 L784.719,118.716 C757.215,313.881 655.425,480.353 511.904,589.607 L79.1139,24.5892 Z " fill="#ffe9ad" fill-opacity="1.00" />
		<path d="M-62.9243,-52.404 L-767.365,-276.276 C-703.942,-470.853 -569.752,-622.655 -403.243,-708.406 L-62.9243,-52.404 Z " fill="#ffe9ad" fill-opacity="1.00" />
		<path d="M-17.2738,7.93949 L-790.304,-183.034 C-841.596,31.3824 -803.811,246.351 -699.157,418.851 L-17.2738,7.93949 Z " fill="#ffdf87" fill-opacity="1.00" />
		<path d="M88.9682,-27.105 L632.512,-438.138 C745.201,-286.809 788.018,-104.988 763.913,65.9935 L88.9682,-27.105 Z " fill="#ffdf87" fill-opacity="1.00" />
		<path d="M-4.30744,-66.2516 L-374.398,-696.709 C-222.24,-795.952 -44.9572,-826.228 117.909,-792.843 L-4.30744,-66.2516 Z " fill="#ffdf87" fill-opacity="1.00" />
		<path d="M21.1927,-1.12588 L-120.186,820.482 C82.0968,865.192 283.453,826.203 443.823,725.078 L21.1927,-1.12588 Z " fill="#ffdf87" fill-opacity="1.00" />
	</g>
</svg>
