<?xml version="1.0" encoding="utf-8" ?>
<!-- Generator: Assembly 2.2 - http://assemblyapp.co -->
<svg version="1.1"
	xmlns="http://www.w3.org/2000/svg"
	xmlns:xlink="http://www.w3.org/1999/xlink" viewBox="0 0 2048.0 2048.0">
	<g id="document" transform="matrix(1,0,0,1,1024.0,1024.0)">
		<path d="M-497.803,995.606 C52.4003,995.606 497.803,550.203 497.803,-8.52651e-14 C497.803,-550.203 52.4003,-995.606 -497.803,-995.606 L-497.803,995.606 Z " fill="#ff9500" fill-opacity="1.00" />
		<path d="M-519.872,915.49 C-13.9433,915.49 395.618,505.929 395.618,-2.18342e-05 C395.618,-505.929 -13.9433,-915.49 -519.872,-915.49 L-519.872,915.49 Z " fill="#ffbe84" fill-opacity="1.00" />
		<path d="M-471.624,92.3641 L-176.554,801.282 C19.117,718.137 164.151,565.601 237.919,385.559 L-471.624,92.3641 Z " fill="#ff9500" fill-opacity="1.00" />
		<path d="M-453.465,26.4114 L256.462,319.046 C336.03,121.893 330.726,-88.5206 255.578,-267.992 L-453.465,26.4114 Z " fill="#ffae00" fill-opacity="1.00" />
		<path d="M-439.643,-31.5555 L234.787,-386.735 C135.071,-572.735 -28.7133,-702.462 -213.311,-759.27 L-439.643,-31.5555 Z " fill="#ff9500" fill-opacity="1.00" />
		<path d="M-519.872,237.962 L-519.872,857.227 C-408.602,880.689 -347.902,855.348 -249.961,813.089 L-519.872,237.962 Z " fill="#ffae00" fill-opacity="1.00" />
		<path d="M-515.795,-164.355 L-516.379,-830.129 C-396.775,-855.458 -331.492,-828.271 -226.156,-782.931 L-515.795,-164.355 Z " fill="#ffae00" fill-opacity="1.00" />
	</g>
</svg>
